<svg xmlns="http://www.w3.org/2000/svg" width="32" height="32" viewBox="0 0 100 100">
  <path d="M50 5C25 5 5 25 5 50c0 25 20 45 45 45s45-20 45-45C95 25 75 5 50 5zm28.5 63.8c-1.7 2-4 3.7-6.7 5-6.4 3-15.8 4.4-26.8 4.4-11 0-20.4-1.4-26.8-4.4-2.7-1.3-5-3-6.7-5-5-3.5-4.2-3.5-9 0-12.6 1.7-1.7 4-3 6.7-4 6.4-2.7 15.8-4 26.8-4 11 0 20.4 1.3 26.8 4 2.7 1 5 2.3 6.7 4 3.5 3.7 3.5 8.5 0 12.7z" fill="#000"/>
  <path d="M35 40c-4-4-10-4-14 0s-4 10 0 14 10 4 14 0 4-10 0-14zm30 0c-4-4-10-4-14 0s-4 10 0 14 10 4 14 0 4-10 0-14z" fill="#fff"/>
  <circle cx="38" cy="47" r="3" fill="#000"/>
  <circle cx="62" cy="47" r="3" fill="#000"/>
  <path d="M50 65c-6 0-11 1-15 3-1.1.5-1.1 1.5 0 2 4 1.7 9 2.7 15 2.7s11-1 15-2.7c1.1-.5 1.1-1.5 0-2-4-2-9-3-15-3z" fill="#000"/>
  <path d="M20 25c0-3 5-10 15-10 0 0-8 5-8 10s3 10 3 10c-7 0-10-7-10-10zm60 0c0-3-5-10-15-10 0 0 8 5 8 10s-3 10-3 10c7 0 10-7 10-10z" fill="#000"/>
  <path d="M43 75c-3 0-6-1-8-3-1-1-1-2 0-3 1-1 2-1 3 0 1 1 3 2 5 2s4-1 5-2c1-1 2-1 3 0 1 1 1 2 0 3-2 2-5 3-8 3z" fill="#fff"/>
</svg>